<svg xmlns="http://www.w3.org/2000/svg" height="24px" viewBox="0 -960 960 960" width="24px" fill="#e3e3e3"><path d="M657.35-137q-36.35 0-61.1-24.85Q571.5-186.71 571.5-223q0-7 6.5-31L289.5-426q-12 15-29.9 23.5-17.89 8.5-38.34 8.5-35.11 0-59.68-25.27Q137-444.54 137-479.77q0-35.23 24.65-60.73Q186.29-566 221.5-566q20.23 0 38 8.37 17.78 8.36 29.5 23.13l289-171.08q-3.5-7.42-5-15.42t-1.5-16.5q0-35.63 24.9-60.56 24.89-24.94 61-24.94 36.1 0 60.85 25.04T743-737.15q0 35.98-24.96 60.82-24.96 24.83-60.62 24.83-20.69 0-37.8-8.75-17.11-8.75-29.12-24.25L302-512.5q3 8 4.75 16.32 1.75 8.31 1.75 16.26 0 7.94-1.5 15.89-1.5 7.96-4.5 15.97L590.5-276q11.79-15 29.01-24 17.23-9 37.91-9 35.66 0 60.62 25.25T743-223q0 36.5-24.98 61.25T657.35-137Zm-.1-25.5q25.96 0 43.11-17.14 17.14-17.15 17.14-43.11 0-25.75-17.25-43.25t-42.75-17.5q-26.21 0-43.36 17.61Q597-248.29 597-223q0 26 17.14 43.25 17.15 17.25 43.11 17.25Zm-435.75-257q25.93 0 43.71-17.14Q283-453.79 283-479.75q0-25.75-17.68-43.25t-43.82-17.5q-25.07 0-42.04 17.61-16.96 17.6-16.96 42.89 0 25.5 16.96 43 16.97 17.5 42.04 17.5ZM657.25-677q25.96 0 43.11-17.25 17.14-17.25 17.14-43t-17.25-43Q683-797.5 657.5-797.5q-26.21 0-43.36 17.25Q597-763 597-737.5q0 26 17.14 43.25Q631.29-677 657.25-677Zm.25 454ZM223-480Zm434.5-257.5Z"/></svg>